# Blender 4.1.1
# www.blender.org
mtllib ParedesTienda3.mtl
o Cube.009
v -247.331787 -0.077950 439.523621
v -247.331787 -0.077950 84.272720
v 110.604187 -0.077950 439.523621
v 110.604187 -0.077950 84.272720
v 110.604187 -0.077950 439.523621
v 110.604187 71.014122 439.523621
v 110.604187 -0.077950 84.272720
v 110.604187 71.014122 84.272720
v -247.331787 -0.019245 439.523621
v -247.331787 -0.019245 84.272720
v -247.331787 71.072830 84.272720
v -247.331787 -0.019245 439.523621
v -247.331787 71.072830 439.523621
v -247.331787 71.072830 84.272720
v -247.331787 -0.077950 439.523651
v -247.331787 71.014122 439.523651
v 110.604187 -0.077950 439.523651
v 110.604187 71.014122 439.523651
v -247.331787 71.014122 439.523621
v -247.331787 71.014122 84.272690
v 110.604187 71.014122 439.523621
v 110.604187 71.014122 84.272690
vn -0.0000 -1.0000 -0.0000
vn 1.0000 -0.0000 -0.0000
vn -1.0000 -0.0000 -0.0000
vn -0.0000 -0.0000 1.0000
vn -0.0000 1.0000 -0.0000
vt -0.010670 -0.126782
vt 1.020509 1.376781
vt -0.010670 1.376781
vt 1.020509 -0.126782
vt -0.027714 -0.126991
vt 1.027714 1.376992
vt -0.027714 1.376992
vt -0.023782 -0.163899
vt 1.023782 1.413561
vt -0.023782 1.413561
vt 1.027714 -0.126991
vt 1.023782 -0.163899
vt 0.003074 -0.757153
vt 0.996926 1.662266
vt 0.003074 1.662266
vt 0.996926 -0.757153
vt -0.379350 -0.325118
vt 1.379650 1.308831
vt -0.379350 1.308831
vt 1.379650 -0.325118
s 0
usemtl Cristal
f 2/1/1 3/2/1 1/3/1
f 2/1/1 4/4/1 3/2/1
f 7/5/2 6/6/2 5/7/2
f 9/8/3 11/9/3 10/10/3
f 7/5/2 8/11/2 6/6/2
f 12/8/3 13/12/3 14/9/3
usemtl ParedMadera
f 17/13/4 16/14/4 15/15/4
f 17/13/4 18/16/4 16/14/4
f 22/17/5 19/18/5 21/19/5
f 22/17/5 20/20/5 19/18/5
